<?xml version="1.0" encoding="UTF-8" standalone="no"?>
<svg
   xmlns="http://www.w3.org/2000/svg"
   xmlns:xlink="http://www.w3.org/1999/xlink"
   width="267.78461mm"
   height="134.1987mm"
   viewBox="0 0 267.78461 134.1987"
   version="1.1"
   id="svg1728"
   >
  <defs
     id="defs1722" />
   <a
     id="a843"
     xlink:href="https://www.openriskacademy.com"
     transform="translate(-14.696197,-8.9781104)"
     xlink:title="Open Risk Academy">
    <path
       style="opacity:1;fill:#002257;fill-opacity:0.51764706;stroke:#ffffff;stroke-width:0.52916664;stroke-miterlimit:4;stroke-dasharray:none;stroke-opacity:1"
       id="path2273-2"
       d="m 58.251407,160.32072 c -0.501157,0.41654 -31.503092,5.73379 -32.114411,5.50805 C 25.525678,165.60303 5.4198379,141.41319 5.3096769,140.7709 5.1995158,140.12861 16.095611,110.62153 16.596768,110.20498 c 0.501157,-0.41655 31.503092,-5.7338 32.114411,-5.50805 0.611318,0.22574 20.717158,24.41558 20.827319,25.05786 0.110161,0.64229 -10.785934,30.14938 -11.287091,30.56593 z"
       transform="rotate(9.3634521,456.56406,163.13561)" />
  </a>
  <a
     id="a4552"
     transform="translate(-14.696197,-8.9781104)"
     xlink:href="https://www.openriskmanagement.com/open-source-risk-models/"
     xlink:title="Open Source Risk Tools">
    <path
       style="opacity:1;fill:#002257;fill-opacity:0.51764706;stroke:#ffffff;stroke-width:0.52916664;stroke-miterlimit:4;stroke-dasharray:none;stroke-opacity:1"
       id="path2273-3"
       d="m 58.251407,160.32072 c -0.501157,0.41654 -31.503092,5.73379 -32.114411,5.50805 C 25.525678,165.60303 5.4198379,141.41319 5.3096769,140.7709 5.1995158,140.12861 16.095611,110.62153 16.596768,110.20498 c 0.501157,-0.41655 31.503092,-5.7338 32.114411,-5.50805 0.611318,0.22574 20.717158,24.41558 20.827319,25.05786 0.110161,0.64229 -10.785934,30.14938 -11.287091,30.56593 z"
       transform="rotate(9.3634521,307.42721,491.38167)" />
  </a>
  <a
     id="a4549"
     transform="translate(-14.696197,-8.9781104)"
     xlink:href="https://www.openriskcommons.org"
     xlink:title="Open Risk Commons">
    <path
       style="opacity:1;fill:#002257;fill-opacity:0.51764706;stroke:#ffffff;stroke-width:0.52916664;stroke-miterlimit:4;stroke-dasharray:none;stroke-opacity:1"
       id="path2273-8"
       d="m 58.251407,160.32072 c -0.501157,0.41654 -31.503092,5.73379 -32.114411,5.50805 C 25.525678,165.60303 5.4198379,141.41319 5.3096769,140.7709 5.1995158,140.12861 16.095611,110.62153 16.596768,110.20498 c 0.501157,-0.41655 31.503092,-5.7338 32.114411,-5.50805 0.611318,0.22574 20.717158,24.41558 20.827319,25.05786 0.110161,0.64229 -10.785934,30.14938 -11.287091,30.56593 z"
       transform="rotate(9.3634521,662.59085,456.29536)" />
  </a>
  <a
     id="a4555"
     transform="translate(-14.696197,-8.9781104)"
     xlink:href="https://www.openriskmanual.org"
     xlink:title="Open Risk Manual">
    <path
       style="opacity:1;fill:#002257;fill-opacity:0.51764706;stroke:#ffffff;stroke-width:0.52916664;stroke-miterlimit:4;stroke-dasharray:none;stroke-opacity:1"
       id="path2273-7"
       d="m 58.251407,160.32072 c -0.501157,0.41654 -31.503092,5.73379 -32.114411,5.50805 C 25.525678,165.60303 5.4198379,141.41319 5.3096769,140.7709 5.1995158,140.12861 16.095611,110.62153 16.596768,110.20498 c 0.501157,-0.41655 31.503092,-5.7338 32.114411,-5.50805 0.611318,0.22574 20.717158,24.41558 20.827319,25.05786 0.110161,0.64229 -10.785934,30.14938 -11.287091,30.56593 z"
       transform="rotate(9.3634521,515.11546,780.40494)" />
  </a>
  <a
     id="a4558"
     transform="translate(-14.47717,-8.1020043)"
     xlink:href="https://www.openriskmanual.org/data"
     xlink:title="Open Risk Data">
    <path
       style="opacity:1;fill:#002257;fill-opacity:0.51764706;stroke:#ffffff;stroke-width:0.52916664;stroke-miterlimit:4;stroke-dasharray:none;stroke-opacity:1"
       id="path2273-7-6"
       d="m 58.251407,160.32072 c -0.501157,0.41654 -31.503092,5.73379 -32.114411,5.50805 C 25.525678,165.60303 5.4198379,141.41319 5.3096769,140.7709 5.1995158,140.12861 16.095611,110.62153 16.596768,110.20498 c 0.501157,-0.41655 31.503092,-5.7338 32.114411,-5.50805 0.611318,0.22574 20.717158,24.41558 20.827319,25.05786 0.110161,0.64229 -10.785934,30.14938 -11.287091,30.56593 z"
       transform="rotate(9.363452,718.99267,1071.7405)" />
  </a>
  <a
     id="a4564"
     transform="translate(-14.696197,-8.9781104)"
     xlink:href="https://www.openriskmanagement.com/furiousbanker/"
     xlink:title="Open Risk Games">
    <path
       style="opacity:1;fill:#002257;fill-opacity:0.51764706;stroke:#ffffff;stroke-width:0.52916664;stroke-miterlimit:4;stroke-dasharray:none;stroke-opacity:1"
       id="path2273-7-6-2"
       d="m 58.251407,160.32072 c -0.501157,0.41654 -31.503092,5.73379 -32.114411,5.50805 C 25.525678,165.60303 5.4198379,141.41319 5.3096769,140.7709 5.1995158,140.12861 16.095611,110.62153 16.596768,110.20498 c 0.501157,-0.41655 31.503092,-5.7338 32.114411,-5.50805 0.611318,0.22574 20.717158,24.41558 20.827319,25.05786 0.110161,0.64229 -10.785934,30.14938 -11.287091,30.56593 z"
       transform="rotate(9.363452,359.36712,1101.1917)" />
  </a>
  <a
     id="a4561"
     transform="translate(-14.696197,-8.9781104)"
     xlink:href="https://www.openriskmanagement.com/dashboard"
     xlink:title="Open Risk Dashboard">
    <path
       style="opacity:1;fill:#002257;fill-opacity:0.51764706;stroke:#ffffff;stroke-width:0.52916664;stroke-miterlimit:4;stroke-dasharray:none;stroke-opacity:1"
       id="path2273-7-6-6"
       d="m 58.251407,160.32072 c -0.501157,0.41654 -31.503092,5.73379 -32.114411,5.50805 C 25.525678,165.60303 5.4198379,141.41319 5.3096769,140.7709 5.1995158,140.12861 16.095611,110.62153 16.596768,110.20498 c 0.501157,-0.41655 31.503092,-5.7338 32.114411,-5.50805 0.611318,0.22574 20.717158,24.41558 20.827319,25.05786 0.110161,0.64229 -10.785934,30.14938 -11.287091,30.56593 z"
       transform="rotate(9.363452,565.55663,1396.3382)" />
  </a>
  <a
     id="a4571"
     xlink:href="https://www.openriskacademy.com"
     xlink:title="Discover free online courses">
    <text
       xml:space="preserve"
       style="font-style:normal;font-weight:normal;font-size:12.39618587px;line-height:1.25;font-family:sans-serif;letter-spacing:0px;word-spacing:0px;fill:#ffffff;fill-opacity:1;stroke:none;stroke-width:0.30990466"
       x="13.627781"
       y="63.067322"
       id="text2493"><tspan
         id="tspan2491"
         x="13.627781"
         y="63.067322"
         style="fill:#ffffff;stroke-width:0.30990466">Learn</tspan></text>
  </a>
  <a
     id="a4591"
     xlink:href="https://www.openriskmanagement.com/furiousbanker/"
     xlink:title="The fun side of risk management">
    <text
       xml:space="preserve"
       style="font-style:normal;font-weight:normal;font-size:12.39618587px;line-height:1.25;font-family:sans-serif;letter-spacing:0px;word-spacing:0px;fill:#ffffff;fill-opacity:1;stroke:none;stroke-width:0.30990466"
       x="171.24585"
       y="92.576019"
       id="text2493-9"><tspan
         id="tspan2491-5"
         x="171.24585"
         y="92.576019"
         style="fill:#ffffff;stroke-width:0.30990466">Play</tspan></text>
  </a>
  <a
     id="a4583"
     xlink:href="https://www.openriskmanagement.com/open-source-risk-models/"
     xlink:title="Join in the development of open source models and tools">
    <text
       xml:space="preserve"
       style="font-style:normal;font-weight:normal;font-size:12.39618587px;line-height:1.25;font-family:sans-serif;letter-spacing:0px;word-spacing:0px;fill:#ffffff;fill-opacity:1;stroke:none;stroke-width:0.30990466"
       x="68.194168"
       y="92.767517"
       id="text2493-9-0"><tspan
         id="tspan2491-5-6"
         x="68.194168"
         y="92.767517"
         style="fill:#ffffff;stroke-width:0.30990466">Code</tspan></text>
  </a>
  <a
     id="a4579"
     xlink:href="https://www.openriskmanual.org"
     xlink:title="Consult the Manual for terminology and methods">
    <text
       xml:space="preserve"
       style="font-style:normal;font-weight:normal;font-size:12.39618587px;line-height:1.25;font-family:sans-serif;letter-spacing:0px;word-spacing:0px;fill:#ffffff;fill-opacity:1;stroke:none;stroke-width:0.30990466"
       x="113.76167"
       y="60.87027"
       id="text2493-9-6"><tspan
         id="tspan2491-5-2"
         x="113.76167"
         y="60.87027"
         style="fill:#ffffff;stroke-width:0.30990466">Define</tspan></text>
  </a>
  <a
     id="a4587"
     xlink:href="https://www.openriskmanual.org/data"
     xlink:title="Fetch or contribute open risk data">
    <text
       xml:space="preserve"
       style="font-style:normal;font-weight:normal;font-size:12.39618587px;line-height:1.25;font-family:sans-serif;letter-spacing:0px;word-spacing:0px;fill:#ffffff;fill-opacity:1;stroke:none;stroke-width:0.30990466"
       x="158.46303"
       y="33.133511"
       id="text2493-9-6-2"><tspan
         id="tspan2491-5-2-0"
         x="158.46303"
         y="33.133511"
         style="fill:#ffffff;stroke-width:0.30990466">Measure</tspan></text>
  </a>
  <a
     id="a4595"
     xlink:href="https://www.openriskmanagement.com/dashboard"
     xlink:title="Get live news and updates about diverse risks">
    <text
       xml:space="preserve"
       style="font-style:normal;font-weight:normal;font-size:12.39618587px;line-height:1.25;font-family:sans-serif;letter-spacing:0px;word-spacing:0px;fill:#ffffff;fill-opacity:1;stroke:none;stroke-width:0.30990466"
       x="210.38661"
       y="61.075836"
       id="text2493-9-6-2-1"><tspan
         id="tspan2491-5-2-0-3"
         x="210.38661"
         y="61.075836"
         style="fill:#ffffff;stroke-width:0.30990466">Manage</tspan></text>
  </a>
  <a
     id="a4575"
     xlink:href="https://www.openriskcommons.org"
     xlink:title="Join the community and discuss">
    <text
       xml:space="preserve"
       style="font-style:normal;font-weight:normal;font-size:12.39618587px;line-height:1.25;font-family:sans-serif;letter-spacing:0px;word-spacing:0px;fill:#ffffff;fill-opacity:1;stroke:none;stroke-width:0.30990466"
       x="59.997612"
       y="32.341045"
       id="text2493-9-6-20"><tspan
         id="tspan2491-5-2-06"
         x="59.997612"
         y="32.341045"
         style="fill:#ffffff;stroke-width:0.30990466">Discuss</tspan></text>
  </a>
  <a
     id="a4567"
     xlink:href="https://www.openriskmanagement.com/open-risk/"
     xlink:title="About the Open Risk Vision"
     style="opacity:1">
    <text
       xml:space="preserve"
       style="font-style:normal;font-weight:normal;font-size:12.39618587px;line-height:1.25;font-family:sans-serif;letter-spacing:0px;word-spacing:0px;fill:#002257;fill-opacity:0.51764706;stroke:none;stroke-width:0.30990466"
       x="19.782246"
       y="131.62021"
       id="text2493-3"><tspan
         id="tspan2491-7"
         x="19.782246"
         y="131.62021"
         style="fill:#002257;fill-opacity:0.51764706;stroke-width:0.30990466">The Open Future of Risk Management</tspan></text>
  </a>
</svg>
